<?xml version="1.0" encoding="utf-8"?>
<!-- Generator: Adobe Illustrator 24.0.1, SVG Export Plug-In . SVG Version: 6.00 Build 0)  -->
<svg version="1.1" id="Layer_1" xmlns="http://www.w3.org/2000/svg" xmlns:xlink="http://www.w3.org/1999/xlink" x="0px" y="0px"
	 viewBox="0 0 16 16" style="enable-background:new 0 0 16 16;" xml:space="preserve">
<g>
	<path d="M7,7.5L4.9,9.7c-0.1,0.1-0.1,0.3,0,0.4c0.1,0.1,0.3,0.1,0.4,0L7.4,8c0.1-0.1,0.1-0.3,0-0.4C7.3,7.4,7.1,7.4,7,7.5z"/>
	<path d="M12.3,8c-0.9-0.2-2.1-0.4-2.9-1.1C8.3,5.7,7.7,4.4,8.5,3.5c0.8-0.8,2.2-0.2,3.4,0.9c0.8,0.8,0.9,2,1.1,2.9l1.8,1.8
		c0.1-0.4,0.1-0.7,0.1-1.1c0-3.8-3.1-6.9-6.9-6.9S1.1,4.2,1.1,8c0,1.5,0.5,2.8,1.2,4l1.1-1.1c0.1-1,0.1-2.5,0.9-3.3
		C6.5,5.4,6.3,5.3,8,7s1.5,1.5-0.6,3.7c-0.8,0.8-2.3,0.8-3.3,0.9l-1.2,1.2C4.2,14.1,6,15,8,15c3.1,0,5.7-2,6.6-4.7L12.3,8z"/>
	<path d="M6.2,10.1c-0.1,0.1-0.1,0.3,0,0.4s0.3,0.1,0.4,0l1.6-1.6c0.1-0.1,0.1-0.3,0-0.4C8.2,8.3,8,8.3,7.8,8.4L6.2,10.1z"/>
	<path d="M6.1,6.7L4.5,8.3c-0.1,0.1-0.1,0.3,0,0.4c0.1,0.1,0.3,0.1,0.4,0l1.6-1.6c0.1-0.1,0.1-0.3,0-0.4C6.4,6.6,6.2,6.6,6.1,6.7z"
		/>
</g>
</svg>
